<svg width="30" height="35" viewBox="0 0 30 35" fill="none" xmlns="http://www.w3.org/2000/svg">
<path d="M11.1125 28.926C12.0586 29.5609 13.1818 29.7325 14.2362 29.4031C15.2905 29.0737 16.1899 28.2703 16.7375 27.1688L21.9625 16.625C22.1104 16.3263 22.2064 15.9965 22.245 15.6545C22.2835 15.3125 22.264 14.9649 22.1874 14.6318C22.1107 14.2986 21.9786 13.9863 21.7984 13.7127C21.6183 13.4392 21.3937 13.2097 21.1375 13.0375L19.575 11.9875M10.9062 28.7875C10.0466 28.2066 9.4197 27.2515 9.16307 26.1319C8.90645 25.0122 9.04111 23.8195 9.5375 22.8156L13.4937 14.7948C13.7905 14.1922 13.8703 13.4769 13.7156 12.8057C13.5609 12.1346 13.1845 11.5624 12.6687 11.2146L9.79375 9.2823C9.53877 9.10864 9.25687 8.99558 8.96427 8.94961C8.67167 8.90365 8.37417 8.9257 8.08891 9.0145C7.80365 9.10329 7.53627 9.25707 7.30218 9.46697C7.0681 9.67687 6.87194 9.93875 6.725 10.2375L3.51875 16.7708C2.82975 18.1727 2.64482 19.836 3.00442 21.3966C3.36401 22.9572 4.23886 24.288 5.4375 25.0979L7.6625 26.6L10.9062 28.7875Z" stroke="black" stroke-linecap="round" stroke-linejoin="round"/>
<path d="M25.125 10.0771C25.5943 10.3914 26.0058 10.8107 26.3359 11.3109C26.666 11.8111 26.9083 12.3824 27.0488 12.9921C27.1893 13.6017 27.2253 14.2377 27.1547 14.8636C27.0842 15.4895 26.9084 16.0931 26.6375 16.6396L22.95 24.0625C22.6507 24.6647 22.1592 25.104 21.5829 25.2844C21.0066 25.4648 20.3925 25.3715 19.875 25.025L18.3125 23.9677M11.3563 10.3542L12.2813 8.48749C12.978 7.08216 14.1243 6.05699 15.4686 5.63724C16.8128 5.21749 18.2448 5.43751 19.45 6.24895L21.675 7.75103L24.9188 9.93853C24.0575 9.36003 23.0347 9.20403 22.0749 9.50482C21.1151 9.80561 20.2969 10.5386 19.8 11.5427L14.375 22.4583C14.0769 23.06 13.5865 23.4992 13.0112 23.6797C12.4359 23.8601 11.8228 23.767 11.3063 23.4208L9.73755 22.3635" stroke="black" stroke-linecap="round" stroke-linejoin="round"/>
</svg>
