<svg width="45" height="45" viewBox="0 0 45 45" fill="none" xmlns="http://www.w3.org/2000/svg">
<rect width="45" height="45" fill="white"/>
<path d="M18.75 35.625C18.2188 35.625 17.7738 35.445 17.415 35.085C17.0563 34.725 16.8763 34.28 16.875 33.75C16.8738 33.22 17.0538 32.775 17.415 32.415C17.7763 32.055 18.2213 31.875 18.75 31.875H37.5C38.0313 31.875 38.4769 32.055 38.8369 32.415C39.1969 32.775 39.3763 33.22 39.375 33.75C39.3738 34.28 39.1938 34.7256 38.835 35.0869C38.4763 35.4481 38.0313 35.6275 37.5 35.625H18.75ZM18.75 24.375C18.2188 24.375 17.7738 24.195 17.415 23.835C17.0563 23.475 16.8763 23.03 16.875 22.5C16.8738 21.97 17.0538 21.525 17.415 21.165C17.7763 20.805 18.2213 20.625 18.75 20.625H37.5C38.0313 20.625 38.4769 20.805 38.8369 21.165C39.1969 21.525 39.3763 21.97 39.375 22.5C39.3738 23.03 39.1938 23.4756 38.835 23.8369C38.4763 24.1981 38.0313 24.3775 37.5 24.375H18.75ZM18.75 13.125C18.2188 13.125 17.7738 12.945 17.415 12.585C17.0563 12.225 16.8763 11.78 16.875 11.25C16.8738 10.72 17.0538 10.275 17.415 9.91501C17.7763 9.55501 18.2213 9.37501 18.75 9.37501H37.5C38.0313 9.37501 38.4769 9.55501 38.8369 9.91501C39.1969 10.275 39.3763 10.72 39.375 11.25C39.3738 11.78 39.1938 12.2256 38.835 12.5869C38.4763 12.9481 38.0313 13.1275 37.5 13.125H18.75ZM9.375 37.5C8.34375 37.5 7.46125 37.1331 6.7275 36.3994C5.99375 35.6656 5.62625 34.7825 5.625 33.75C5.62375 32.7175 5.99125 31.835 6.7275 31.1025C7.46375 30.37 8.34625 30.0025 9.375 30C10.4038 29.9975 11.2869 30.365 12.0244 31.1025C12.7619 31.84 13.1288 32.7225 13.125 33.75C13.1213 34.7775 12.7544 35.6606 12.0244 36.3994C11.2944 37.1381 10.4113 37.505 9.375 37.5ZM9.375 26.25C8.34375 26.25 7.46125 25.8831 6.7275 25.1494C5.99375 24.4156 5.62625 23.5325 5.625 22.5C5.62375 21.4675 5.99125 20.585 6.7275 19.8525C7.46375 19.12 8.34625 18.7525 9.375 18.75C10.4038 18.7475 11.2869 19.115 12.0244 19.8525C12.7619 20.59 13.1288 21.4725 13.125 22.5C13.1213 23.5275 12.7544 24.4106 12.0244 25.1494C11.2944 25.8881 10.4113 26.255 9.375 26.25ZM9.375 15C8.34375 15 7.46125 14.6331 6.7275 13.8994C5.99375 13.1656 5.62625 12.2825 5.625 11.25C5.62375 10.2175 5.99125 9.33501 6.7275 8.60251C7.46375 7.87001 8.34625 7.50251 9.375 7.50001C10.4038 7.49751 11.2869 7.86501 12.0244 8.60251C12.7619 9.34001 13.1288 10.2225 13.125 11.25C13.1213 12.2775 12.7544 13.1606 12.0244 13.8994C11.2944 14.6381 10.4113 15.005 9.375 15Z" fill="black"/>
</svg>
