<svg width="28" height="21" viewBox="0 0 28 21" fill="none" xmlns="http://www.w3.org/2000/svg">
<path d="M5.5625 5.34375C5.5625 4.47351 5.9082 3.63891 6.52356 3.02356C7.13891 2.4082 7.97351 2.0625 8.84375 2.0625C9.71399 2.0625 10.5486 2.4082 11.1639 3.02356C11.7793 3.63891 12.125 4.47351 12.125 5.34375C12.125 6.21399 11.7793 7.04859 11.1639 7.66394C10.5486 8.2793 9.71399 8.625 8.84375 8.625C7.97351 8.625 7.13891 8.2793 6.52356 7.66394C5.9082 7.04859 5.5625 6.21399 5.5625 5.34375ZM8.84375 0.1875C7.47623 0.1875 6.16472 0.730746 5.19773 1.69773C4.23075 2.66472 3.6875 3.97623 3.6875 5.34375C3.6875 6.71127 4.23075 8.02279 5.19773 8.98977C6.16472 9.95675 7.47623 10.5 8.84375 10.5C10.2113 10.5 11.5228 9.95675 12.4898 8.98977C13.4568 8.02279 14 6.71127 14 5.34375C14 3.97623 13.4568 2.66472 12.4898 1.69773C11.5228 0.730746 10.2113 0.1875 8.84375 0.1875ZM18.6875 6.75C18.6875 6.25272 18.885 5.77581 19.2367 5.42418C19.5883 5.07254 20.0652 4.875 20.5625 4.875C21.0598 4.875 21.5367 5.07254 21.8883 5.42418C22.24 5.77581 22.4375 6.25272 22.4375 6.75C22.4375 7.24728 22.24 7.72419 21.8883 8.07582C21.5367 8.42746 21.0598 8.625 20.5625 8.625C20.0652 8.625 19.5883 8.42746 19.2367 8.07582C18.885 7.72419 18.6875 7.24728 18.6875 6.75ZM20.5625 3C19.5679 3 18.6141 3.39509 17.9109 4.09835C17.2076 4.80161 16.8125 5.75544 16.8125 6.75C16.8125 7.74456 17.2076 8.69839 17.9109 9.40165C18.6141 10.1049 19.5679 10.5 20.5625 10.5C21.5571 10.5 22.5109 10.1049 23.2141 9.40165C23.9174 8.69839 24.3125 7.74456 24.3125 6.75C24.3125 5.75544 23.9174 4.80161 23.2141 4.09835C22.5109 3.39509 21.5571 3 20.5625 3ZM0.875 15.1875C0.875 14.4416 1.17132 13.7262 1.69876 13.1988C2.22621 12.6713 2.94158 12.375 3.6875 12.375H14C14.7459 12.375 15.4613 12.6713 15.9887 13.1988C16.5162 13.7262 16.8125 14.4416 16.8125 15.1875V15.3994C16.8107 15.4868 16.8044 15.5741 16.7937 15.6609C16.775 15.8231 16.7403 16.0434 16.6719 16.3041C16.4918 16.9916 16.1731 17.6351 15.7353 18.195C14.6384 19.6031 12.575 20.8125 8.84375 20.8125C5.1125 20.8125 3.05 19.6031 1.95219 18.195C1.5141 17.6352 1.19507 16.9917 1.01469 16.3041C0.943079 16.0283 0.897257 15.7464 0.877813 15.4622C0.876906 15.4413 0.876281 15.4203 0.875937 15.3994V15.3778L0.875 15.3703V15.1875ZM2.75 15.3544V15.3656C2.76299 15.5233 2.78965 15.6795 2.82969 15.8325C2.91406 16.1587 3.08562 16.5994 3.43062 17.0428C4.09156 17.8903 5.54375 18.9375 8.84375 18.9375C12.1437 18.9375 13.5969 17.8903 14.2569 17.0437C14.5372 16.685 14.7413 16.2729 14.8569 15.8325C14.8972 15.6795 14.9242 15.5233 14.9375 15.3656L14.9384 15.3544V15.1875C14.9384 14.9389 14.8397 14.7004 14.6639 14.5246C14.488 14.3488 14.2496 14.25 14.0009 14.25H3.6875C3.43886 14.25 3.2004 14.3488 3.02459 14.5246C2.84877 14.7004 2.75 14.9389 2.75 15.1875V15.3544ZM17.2597 18.4613C18.1316 18.7575 19.2163 18.9375 20.5625 18.9375C23.5634 18.9375 25.2688 18.0441 26.1997 16.9453C26.6525 16.4109 26.8841 15.8691 27.0013 15.4528C27.0644 15.2296 27.1049 15.0007 27.1222 14.7694L27.1231 14.7356L27.1241 14.715V14.6794C27.1242 14.3767 27.0647 14.077 26.9489 13.7974C26.8331 13.5177 26.6634 13.2637 26.4494 13.0497C26.2354 12.8357 25.9813 12.6659 25.7017 12.5502C25.422 12.4344 25.1223 12.3749 24.8197 12.375H17.1425C17.6112 12.8991 17.9516 13.5403 18.1128 14.25H24.8197C25.0541 14.25 25.2434 14.4366 25.2491 14.6681C25.2398 14.7614 25.2223 14.8536 25.1966 14.9437C25.1384 15.15 25.0184 15.4388 24.7681 15.7341C24.2938 16.2956 23.1866 17.0625 20.5625 17.0625C19.4703 17.0625 18.6416 16.9294 18.0116 16.7344C17.8448 17.343 17.5916 17.9245 17.2597 18.4613Z" fill="black"/>
</svg>
