<svg width="26" height="26" viewBox="0 0 26 26" fill="none" xmlns="http://www.w3.org/2000/svg">
<path d="M4.5 6.5C4.5 4.9087 5.13214 3.38258 6.25736 2.25736C7.38258 1.13214 8.9087 0.5 10.5 0.5C12.0913 0.5 13.6174 1.13214 14.7426 2.25736C15.8679 3.38258 16.5 4.9087 16.5 6.5C16.5 8.0913 15.8679 9.61742 14.7426 10.7426C13.6174 11.8679 12.0913 12.5 10.5 12.5C8.9087 12.5 7.38258 11.8679 6.25736 10.7426C5.13214 9.61742 4.5 8.0913 4.5 6.5ZM10.5 2C9.30653 2 8.16193 2.47411 7.31802 3.31802C6.47411 4.16193 6 5.30653 6 6.5C6 7.69347 6.47411 8.83807 7.31802 9.68198C8.16193 10.5259 9.30653 11 10.5 11C11.6935 11 12.8381 10.5259 13.682 9.68198C14.5259 8.83807 15 7.69347 15 6.5C15 5.30653 14.5259 4.16193 13.682 3.31802C12.8381 2.47411 11.6935 2 10.5 2ZM0 17C0 15.3305 1.3545 14 3.0135 14H12.3855C12.0035 14.4627 11.673 14.9657 11.4 15.5H3.0135C2.172 15.5 1.5 16.1705 1.5 17C1.5 18.9635 2.433 20.426 4.0095 21.4295C5.6145 22.454 7.8975 23 10.5 23C10.8 23 11.097 22.9925 11.388 22.9775C11.6475 23.4905 11.9595 23.9705 12.315 24.4145C11.7225 24.4715 11.115 24.5 10.5 24.5C7.7175 24.5 5.1255 23.921 3.2025 22.6955C1.2495 21.4505 0 19.535 0 17ZM25.5 19.25C25.5 21.0402 24.7888 22.7571 23.523 24.023C22.2571 25.2888 20.5402 26 18.75 26C16.9598 26 15.2429 25.2888 13.977 24.023C12.7112 22.7571 12 21.0402 12 19.25C12 17.4598 12.7112 15.7429 13.977 14.477C15.2429 13.2112 16.9598 12.5 18.75 12.5C20.5402 12.5 22.2571 13.2112 23.523 14.477C24.7888 15.7429 25.5 17.4598 25.5 19.25ZM18.75 15.5C18.5511 15.5 18.3603 15.579 18.2197 15.7197C18.079 15.8603 18 16.0511 18 16.25V19.25C18 19.4489 18.079 19.6397 18.2197 19.7803C18.3603 19.921 18.5511 20 18.75 20H21C21.1989 20 21.3897 19.921 21.5303 19.7803C21.671 19.6397 21.75 19.4489 21.75 19.25C21.75 19.0511 21.671 18.8603 21.5303 18.7197C21.3897 18.579 21.1989 18.5 21 18.5H19.5V16.25C19.5 16.0511 19.421 15.8603 19.2803 15.7197C19.1397 15.579 18.9489 15.5 18.75 15.5Z" fill="black"/>
</svg>
