<svg width="26" height="25" viewBox="0 0 26 25" fill="none" xmlns="http://www.w3.org/2000/svg">
<path d="M22.375 2.5H18.625V0.625C18.625 0.45924 18.5592 0.300269 18.4419 0.183058C18.3247 0.0658481 18.1658 0 18 0C17.8342 0 17.6753 0.0658481 17.5581 0.183058C17.4408 0.300269 17.375 0.45924 17.375 0.625V2.5H8.625V0.625C8.625 0.45924 8.55915 0.300269 8.44194 0.183058C8.32473 0.0658481 8.16576 0 8 0C7.83424 0 7.67527 0.0658481 7.55806 0.183058C7.44085 0.300269 7.375 0.45924 7.375 0.625V2.5H3.625C2.7965 2.50099 2.00222 2.83055 1.41639 3.41639C0.830551 4.00222 0.500992 4.7965 0.5 5.625V21.875C0.500992 22.7035 0.830551 23.4978 1.41639 24.0836C2.00222 24.6694 2.7965 24.999 3.625 25H22.375C23.2036 24.9993 23.9981 24.6699 24.584 24.084C25.1699 23.4981 25.4993 22.7036 25.5 21.875V5.625C25.4993 4.7964 25.1699 4.00193 24.584 3.41602C23.9981 2.83011 23.2036 2.50066 22.375 2.5ZM24.25 21.875C24.25 22.3723 24.0525 22.8492 23.7008 23.2008C23.3492 23.5525 22.8723 23.75 22.375 23.75H3.625C3.12772 23.75 2.65081 23.5525 2.29917 23.2008C1.94754 22.8492 1.75 22.3723 1.75 21.875V11.25H24.25V21.875ZM24.25 10H1.75V5.625C1.75 4.59 2.5875 3.75 3.625 3.75H7.375V5.625C7.375 5.79076 7.44085 5.94973 7.55806 6.06694C7.67527 6.18415 7.83424 6.25 8 6.25C8.16576 6.25 8.32473 6.18415 8.44194 6.06694C8.55915 5.94973 8.625 5.79076 8.625 5.625V3.75H17.375V5.625C17.375 5.79076 17.4408 5.94973 17.5581 6.06694C17.6753 6.18415 17.8342 6.25 18 6.25C18.1658 6.25 18.3247 6.18415 18.4419 6.06694C18.5592 5.94973 18.625 5.79076 18.625 5.625V3.75H22.375C22.8723 3.75 23.3492 3.94754 23.7008 4.29917C24.0525 4.65081 24.25 5.12772 24.25 5.625V10Z" fill="black"/>
</svg>
