<svg width="31" height="31" viewBox="0 0 31 31" fill="none" xmlns="http://www.w3.org/2000/svg">
<path d="M11.6129 25.4666C12.559 26.0108 13.6822 26.1579 14.7365 25.8755C15.7908 25.5932 16.6903 24.9046 17.2379 23.9604L22.4629 14.9229C22.6108 14.6669 22.7068 14.3842 22.7453 14.091C22.7839 13.7979 22.7643 13.5 22.6877 13.2144C22.6111 12.9288 22.4789 12.6611 22.2988 12.4267C22.1187 12.1922 21.8941 11.9955 21.6379 11.8479L20.0754 10.9479M11.4066 25.3479C10.547 24.85 9.92006 24.0313 9.66344 23.0716C9.40682 22.1119 9.54148 21.0896 10.0379 20.2291L13.9941 13.3541C14.2908 12.8376 14.3706 12.2245 14.216 11.6492C14.0613 11.074 13.6848 10.5835 13.1691 10.2854L10.2941 8.62914C10.0391 8.48029 9.75723 8.38338 9.46463 8.34398C9.17204 8.30459 8.87453 8.32349 8.58927 8.3996C8.30401 8.47571 8.03664 8.60752 7.80255 8.78743C7.56847 8.96735 7.3723 9.19181 7.22536 9.44789L4.01911 15.0479C3.33012 16.2495 3.14519 17.6752 3.50478 19.0128C3.86438 20.3505 4.73922 21.4912 5.93786 22.1854L8.16286 23.4729L11.4066 25.3479Z" stroke="black" stroke-linecap="round" stroke-linejoin="round"/>
<path d="M25.6253 9.31027C26.0946 9.57971 26.506 9.9391 26.8362 10.3679C27.1663 10.7966 27.4085 11.2863 27.549 11.8089C27.6895 12.3314 27.7255 12.8766 27.655 13.413C27.5844 13.9495 27.4087 14.4668 27.1378 14.9353L23.4503 21.2978C23.151 21.8139 22.6594 22.1905 22.0831 22.3451C21.5068 22.4997 20.8928 22.4198 20.3753 22.1228L18.8128 21.2165M11.8565 9.54777L12.7815 7.94778C13.4782 6.7432 14.6246 5.86448 15.9688 5.5047C17.313 5.14492 18.7451 5.33351 19.9503 6.02902L22.1753 7.31653L25.419 9.19153C24.5578 8.69566 23.5349 8.56195 22.5751 8.81977C21.6154 9.07759 20.7972 9.70584 20.3003 10.5665L14.8753 19.9228C14.5772 20.4385 14.0867 20.815 13.5115 20.9696C12.9362 21.1243 12.3231 21.0445 11.8065 20.7478L10.2378 19.8415" stroke="black" stroke-linecap="round" stroke-linejoin="round"/>
</svg>
