<svg width="25" height="23" viewBox="0 0 25 23" fill="none" xmlns="http://www.w3.org/2000/svg">
<path d="M14.75 6.48291V3.98291C14.75 3.31987 14.4866 2.68398 14.0178 2.21514C13.5489 1.7463 12.913 1.48291 12.25 1.48291H3.5C2.83696 1.48291 2.20107 1.7463 1.73223 2.21514C1.26339 2.68398 1 3.31987 1 3.98291V18.9829C1 19.646 1.26339 20.2818 1.73223 20.7507C2.20107 21.2195 2.83696 21.4829 3.5 21.4829H12.25C12.913 21.4829 13.5489 21.2195 14.0178 20.7507C14.4866 20.2818 14.75 19.646 14.75 18.9829V16.4829" stroke="white" stroke-width="2" stroke-linecap="round" stroke-linejoin="round"/>
<path d="M8.5 11.4829H23.5M23.5 11.4829L19.75 7.73291M23.5 11.4829L19.75 15.2329" stroke="white" stroke-width="2" stroke-linecap="round" stroke-linejoin="round"/>
</svg>
