<svg width="27" height="21" viewBox="0 0 27 21" fill="none" xmlns="http://www.w3.org/2000/svg">
<path d="M5.35742 5.43628C5.35742 4.56604 5.70312 3.73144 6.31848 3.11609C6.93383 2.50073 7.76843 2.15503 8.63867 2.15503C9.50891 2.15503 10.3435 2.50073 10.9589 3.11609C11.5742 3.73144 11.9199 4.56604 11.9199 5.43628C11.9199 6.30652 11.5742 7.14112 10.9589 7.75647C10.3435 8.37183 9.50891 8.71753 8.63867 8.71753C7.76843 8.71753 6.93383 8.37183 6.31848 7.75647C5.70312 7.14112 5.35742 6.30652 5.35742 5.43628ZM8.63867 0.280029C7.27115 0.280029 5.95964 0.823276 4.99265 1.79026C4.02567 2.75724 3.48242 4.06876 3.48242 5.43628C3.48242 6.8038 4.02567 8.11531 4.99265 9.0823C5.95964 10.0493 7.27115 10.5925 8.63867 10.5925C10.0062 10.5925 11.3177 10.0493 12.2847 9.0823C13.2517 8.11531 13.7949 6.8038 13.7949 5.43628C13.7949 4.06876 13.2517 2.75724 12.2847 1.79026C11.3177 0.823276 10.0062 0.280029 8.63867 0.280029ZM18.4824 6.84253C18.4824 6.34525 18.68 5.86834 19.0316 5.5167C19.3832 5.16507 19.8601 4.96753 20.3574 4.96753C20.8547 4.96753 21.3316 5.16507 21.6832 5.5167C22.0349 5.86834 22.2324 6.34525 22.2324 6.84253C22.2324 7.33981 22.0349 7.81672 21.6832 8.16835C21.3316 8.51998 20.8547 8.71753 20.3574 8.71753C19.8601 8.71753 19.3832 8.51998 19.0316 8.16835C18.68 7.81672 18.4824 7.33981 18.4824 6.84253ZM20.3574 3.09253C19.3629 3.09253 18.409 3.48762 17.7058 4.19088C17.0025 4.89414 16.6074 5.84797 16.6074 6.84253C16.6074 7.83709 17.0025 8.79092 17.7058 9.49418C18.409 10.1974 19.3629 10.5925 20.3574 10.5925C21.352 10.5925 22.3058 10.1974 23.0091 9.49418C23.7123 8.79092 24.1074 7.83709 24.1074 6.84253C24.1074 5.84797 23.7123 4.89414 23.0091 4.19088C22.3058 3.48762 21.352 3.09253 20.3574 3.09253ZM0.669922 15.28C0.669922 14.5341 0.966238 13.8187 1.49368 13.2913C2.02113 12.7638 2.7365 12.4675 3.48242 12.4675H13.7949C14.5408 12.4675 15.2562 12.7638 15.7837 13.2913C16.3111 13.8187 16.6074 14.5341 16.6074 15.28V15.4919C16.6056 15.5794 16.5993 15.6667 16.5887 15.7535C16.5699 15.9157 16.5352 16.136 16.4668 16.3966C16.2867 17.0841 15.968 17.7276 15.5302 18.2875C14.4334 19.6957 12.3699 20.905 8.63867 20.905C4.90742 20.905 2.84492 19.6957 1.74711 18.2875C1.30902 17.7277 0.989995 17.0842 0.809609 16.3966C0.738001 16.1208 0.692179 15.839 0.672734 15.5547C0.671828 15.5338 0.671203 15.5128 0.670859 15.4919V15.4703L0.669922 15.4628V15.28ZM2.54492 15.4469V15.4582C2.55791 15.6158 2.58458 15.772 2.62461 15.925C2.70898 16.2513 2.88055 16.6919 3.22555 17.1353C3.88648 17.9828 5.33867 19.03 8.63867 19.03C11.9387 19.03 13.3918 17.9828 14.0518 17.1363C14.3321 16.7775 14.5363 16.3654 14.6518 15.925C14.6921 15.772 14.7191 15.6158 14.7324 15.4582L14.7334 15.4469V15.28C14.7334 15.0314 14.6346 14.7929 14.4588 14.6171C14.283 14.4413 14.0445 14.3425 13.7959 14.3425H3.48242C3.23378 14.3425 2.99532 14.4413 2.81951 14.6171C2.64369 14.7929 2.54492 15.0314 2.54492 15.28V15.4469ZM17.0546 18.5538C17.9265 18.85 19.0112 19.03 20.3574 19.03C23.3584 19.03 25.0637 18.1366 25.9946 17.0378C26.4474 16.5035 26.679 15.9616 26.7962 15.5453C26.8593 15.3222 26.8999 15.0932 26.9171 14.8619L26.918 14.8282L26.919 14.8075V14.7719C26.9191 14.4693 26.8596 14.1695 26.7438 13.8899C26.6281 13.6103 26.4583 13.3562 26.2443 13.1422C26.0303 12.9282 25.7762 12.7585 25.4966 12.6427C25.217 12.5269 24.9173 12.4674 24.6146 12.4675H16.9374C17.4062 12.9916 17.7465 13.6328 17.9077 14.3425H24.6146C24.849 14.3425 25.0384 14.5291 25.044 14.7607C25.0348 14.8539 25.0172 14.9462 24.9915 15.0363C24.9334 15.2425 24.8134 15.5313 24.563 15.8266C24.0887 16.3882 22.9815 17.155 20.3574 17.155C19.2652 17.155 18.4365 17.0219 17.8065 16.8269C17.6397 17.4355 17.3865 18.0171 17.0546 18.5538Z" fill="white"/>
</svg>
