<svg width="26" height="26" viewBox="0 0 26 26" fill="none" xmlns="http://www.w3.org/2000/svg">
<path d="M21.9224 3.39697H18.1724V1.52197C18.1724 1.35621 18.1065 1.19724 17.9893 1.08003C17.8721 0.962821 17.7131 0.896973 17.5474 0.896973C17.3816 0.896973 17.2226 0.962821 17.1054 1.08003C16.9882 1.19724 16.9224 1.35621 16.9224 1.52197V3.39697H8.17236V1.52197C8.17236 1.35621 8.10652 1.19724 7.98931 1.08003C7.8721 0.962821 7.71312 0.896973 7.54736 0.896973C7.3816 0.896973 7.22263 0.962821 7.10542 1.08003C6.98821 1.19724 6.92236 1.35621 6.92236 1.52197V3.39697H3.17236C2.34387 3.39797 1.54959 3.72752 0.963751 4.31336C0.377915 4.8992 0.0483557 5.69348 0.0473633 6.52197V22.772C0.0483557 23.6005 0.377915 24.3947 0.963751 24.9806C1.54959 25.5664 2.34387 25.896 3.17236 25.897H21.9224C22.751 25.8963 23.5454 25.5669 24.1313 24.9809C24.7172 24.395 25.0467 23.6006 25.0474 22.772V6.52197C25.0467 5.69337 24.7172 4.8989 24.1313 4.313C23.5454 3.72709 22.751 3.39763 21.9224 3.39697ZM23.7974 22.772C23.7974 23.2693 23.5998 23.7462 23.2482 24.0978C22.8966 24.4494 22.4196 24.647 21.9224 24.647H3.17236C2.67508 24.647 2.19817 24.4494 1.84654 24.0978C1.49491 23.7462 1.29736 23.2693 1.29736 22.772V12.147H23.7974V22.772ZM23.7974 10.897H1.29736V6.52197C1.29736 5.48697 2.13486 4.64697 3.17236 4.64697H6.92236V6.52197C6.92236 6.68773 6.98821 6.8467 7.10542 6.96391C7.22263 7.08112 7.3816 7.14697 7.54736 7.14697C7.71312 7.14697 7.8721 7.08112 7.98931 6.96391C8.10652 6.8467 8.17236 6.68773 8.17236 6.52197V4.64697H16.9224V6.52197C16.9224 6.68773 16.9882 6.8467 17.1054 6.96391C17.2226 7.08112 17.3816 7.14697 17.5474 7.14697C17.7131 7.14697 17.8721 7.08112 17.9893 6.96391C18.1065 6.8467 18.1724 6.68773 18.1724 6.52197V4.64697H21.9224C22.4196 4.64697 22.8966 4.84452 23.2482 5.19615C23.5998 5.54778 23.7974 6.02469 23.7974 6.52197V10.897Z" fill="black"/>
</svg>
