<svg width="27" height="26" viewBox="0 0 27 26" fill="none" xmlns="http://www.w3.org/2000/svg">
<path d="M1 4.13062C1 3.46757 1.26339 2.83169 1.73223 2.36285C2.20107 1.89401 2.83696 1.63062 3.5 1.63062H11V24.1306H3.5C2.83696 24.1306 2.20107 23.8672 1.73223 23.3984C1.26339 22.9295 1 22.2937 1 21.6306V4.13062ZM16 1.63062H23.5C24.163 1.63062 24.7989 1.89401 25.2678 2.36285C25.7366 2.83169 26 3.46757 26 4.13062V10.3806H16V1.63062ZM16 15.3806H26V21.6306C26 22.2937 25.7366 22.9295 25.2678 23.3984C24.7989 23.8672 24.163 24.1306 23.5 24.1306H16V15.3806Z" stroke="white" stroke-width="2" stroke-linecap="round" stroke-linejoin="round"/>
</svg>
