<svg width="31" height="29" viewBox="0 0 31 29" fill="none" xmlns="http://www.w3.org/2000/svg">
<path d="M30.5005 22.6851V24.5601H21.0376L24.1284 27.6509L22.8101 28.9692L17.4634 23.6226L22.8101 18.2759L24.1284 19.5942L21.0376 22.6851H30.5005ZM19.4263 16.3423L18.1372 17.7046C17.2681 16.8843 16.2866 16.2593 15.1929 15.8296C14.0991 15.3999 12.9517 15.1851 11.7505 15.1851C10.8911 15.1851 10.061 15.2974 9.26025 15.522C8.45947 15.7466 7.7124 16.0591 7.01904 16.4595C6.32568 16.8599 5.6958 17.3481 5.12939 17.9243C4.56299 18.5005 4.07471 19.1353 3.66455 19.8286C3.25439 20.522 2.93701 21.269 2.7124 22.0698C2.48779 22.8706 2.37549 23.7007 2.37549 24.5601H0.500488C0.500488 23.4175 0.671387 22.2993 1.01318 21.2056C1.35498 20.1118 1.84814 19.1011 2.49268 18.1733C3.13721 17.2456 3.90381 16.4204 4.79248 15.6978C5.68115 14.9751 6.67236 14.4233 7.76611 14.0425C7.21924 13.6909 6.73096 13.2856 6.30127 12.8267C5.87158 12.3677 5.50049 11.8647 5.18799 11.3179C4.87549 10.771 4.646 10.1948 4.49951 9.58936C4.35303 8.98389 4.27002 8.34912 4.25049 7.68506C4.25049 6.6499 4.4458 5.67822 4.83643 4.77002C5.22705 3.86182 5.75928 3.06592 6.43311 2.38232C7.10693 1.69873 7.90283 1.16162 8.8208 0.770996C9.73877 0.380371 10.7153 0.185059 11.7505 0.185059C12.7856 0.185059 13.7573 0.380371 14.6655 0.770996C15.5737 1.16162 16.3696 1.69385 17.0532 2.36768C17.7368 3.0415 18.2739 3.8374 18.6646 4.75537C19.0552 5.67334 19.2505 6.6499 19.2505 7.68506C19.2505 9.02295 18.9429 10.2339 18.3276 11.3179C17.7124 12.4019 16.8481 13.3101 15.7349 14.0425C16.4185 14.2964 17.0679 14.6187 17.6831 15.0093C18.2983 15.3999 18.8794 15.8442 19.4263 16.3423ZM6.12549 7.68506C6.12549 8.46631 6.27197 9.19385 6.56494 9.86768C6.85791 10.5415 7.2583 11.1372 7.76611 11.6548C8.27393 12.1724 8.86963 12.5776 9.55322 12.8706C10.2368 13.1636 10.9692 13.3101 11.7505 13.3101C12.522 13.3101 13.2495 13.1636 13.9331 12.8706C14.6167 12.5776 15.2124 12.1772 15.7202 11.6694C16.228 11.1616 16.6333 10.5659 16.936 9.88232C17.2388 9.19873 17.3853 8.46631 17.3755 7.68506C17.3755 6.91357 17.229 6.18604 16.936 5.50244C16.6431 4.81885 16.2427 4.22314 15.7349 3.71533C15.2271 3.20752 14.6265 2.80225 13.9331 2.49951C13.2397 2.19678 12.5122 2.05029 11.7505 2.06006C10.9692 2.06006 10.2417 2.20654 9.56787 2.49951C8.89404 2.79248 8.29834 3.19287 7.78076 3.70068C7.26318 4.2085 6.85791 4.80908 6.56494 5.50244C6.27197 6.1958 6.12549 6.92334 6.12549 7.68506Z" fill="black"/>
</svg>
