<svg width="26" height="26" viewBox="0 0 26 26" fill="none" xmlns="http://www.w3.org/2000/svg">
<path d="M5.00049 6.19141C5.00049 4.60011 5.63263 3.07398 6.75785 1.94877C7.88307 0.823547 9.40919 0.191406 11.0005 0.191406C12.5918 0.191406 14.1179 0.823547 15.2431 1.94877C16.3683 3.07398 17.0005 4.60011 17.0005 6.19141C17.0005 7.78271 16.3683 9.30883 15.2431 10.434C14.1179 11.5593 12.5918 12.1914 11.0005 12.1914C9.40919 12.1914 7.88307 11.5593 6.75785 10.434C5.63263 9.30883 5.00049 7.78271 5.00049 6.19141ZM11.0005 1.69141C9.80701 1.69141 8.66242 2.16551 7.81851 3.00943C6.97459 3.85334 6.50049 4.99793 6.50049 6.19141C6.50049 7.38488 6.97459 8.52947 7.81851 9.37339C8.66242 10.2173 9.80701 10.6914 11.0005 10.6914C12.194 10.6914 13.3386 10.2173 14.1825 9.37339C15.0264 8.52947 15.5005 7.38488 15.5005 6.19141C15.5005 4.99793 15.0264 3.85334 14.1825 3.00943C13.3386 2.16551 12.194 1.69141 11.0005 1.69141ZM0.500488 16.6914C0.500488 15.0219 1.85499 13.6914 3.51399 13.6914H12.886C12.5039 14.1541 12.1735 14.6571 11.9005 15.1914H3.51399C2.67249 15.1914 2.00049 15.8619 2.00049 16.6914C2.00049 18.6549 2.93349 20.1174 4.50999 21.1209C6.11499 22.1454 8.39799 22.6914 11.0005 22.6914C11.3005 22.6914 11.5975 22.6839 11.8885 22.6689C12.148 23.1819 12.46 23.6619 12.8155 24.1059C12.223 24.1629 11.6155 24.1914 11.0005 24.1914C8.21799 24.1914 5.62599 23.6124 3.70299 22.3869C1.74999 21.1419 0.500488 19.2264 0.500488 16.6914ZM26.0005 18.9414C26.0005 20.7316 25.2893 22.4485 24.0235 23.7144C22.7576 24.9802 21.0407 25.6914 19.2505 25.6914C17.4603 25.6914 15.7434 24.9802 14.4775 23.7144C13.2116 22.4485 12.5005 20.7316 12.5005 18.9414C12.5005 17.1512 13.2116 15.4343 14.4775 14.1684C15.7434 12.9026 17.4603 12.1914 19.2505 12.1914C21.0407 12.1914 22.7576 12.9026 24.0235 14.1684C25.2893 15.4343 26.0005 17.1512 26.0005 18.9414ZM19.2505 15.1914C19.0516 15.1914 18.8608 15.2704 18.7202 15.4111C18.5795 15.5517 18.5005 15.7425 18.5005 15.9414V18.9414C18.5005 19.1403 18.5795 19.3311 18.7202 19.4717C18.8608 19.6124 19.0516 19.6914 19.2505 19.6914H21.5005C21.6994 19.6914 21.8902 19.6124 22.0308 19.4717C22.1715 19.3311 22.2505 19.1403 22.2505 18.9414C22.2505 18.7425 22.1715 18.5517 22.0308 18.4111C21.8902 18.2704 21.6994 18.1914 21.5005 18.1914H20.0005V15.9414C20.0005 15.7425 19.9215 15.5517 19.7808 15.4111C19.6402 15.2704 19.4494 15.1914 19.2505 15.1914Z" fill="black"/>
</svg>
